<svg xmlns="http://www.w3.org/2000/svg" xmlns:xlink="http://www.w3.org/1999/xlink" viewBox="0 0 110.86 92.22"><defs><style>.cls-1{fill:#2d2042;}.cls-2{fill:url(#Degradado_sin_nombre_23);}.cls-3{fill:url(#Degradado_sin_nombre_22);}.cls-4{fill:url(#Degradado_sin_nombre_22-2);}.cls-5{fill:url(#Degradado_sin_nombre_27);}.cls-6{fill:url(#Degradado_sin_nombre_27-2);}.cls-7{fill:url(#Degradado_sin_nombre_22-3);}.cls-8{fill:url(#Degradado_sin_nombre_27-3);}</style><linearGradient id="Degradado_sin_nombre_23" x1="97.48" y1="8.19" x2="11.27" y2="8.19" gradientUnits="userSpaceOnUse"><stop offset="0" stop-color="#b63ae4"/><stop offset="1" stop-color="#23e0ff"/></linearGradient><linearGradient id="Degradado_sin_nombre_22" y1="53.75" x2="110.86" y2="53.75" gradientUnits="userSpaceOnUse"><stop offset="0" stop-color="#eb5c43"/><stop offset="1" stop-color="#ffdc2c"/></linearGradient><linearGradient id="Degradado_sin_nombre_22-2" x1="109.36" y1="53.75" x2="28.33" y2="53.75" xlink:href="#Degradado_sin_nombre_22"/><linearGradient id="Degradado_sin_nombre_27" x1="95" y1="53.28" x2="62.47" y2="53.28" gradientUnits="userSpaceOnUse"><stop offset="0" stop-color="#ffe496" stop-opacity="0"/><stop offset="1" stop-color="#ffda0b"/></linearGradient><linearGradient id="Degradado_sin_nombre_27-2" x1="91.37" y1="53.75" x2="51.39" y2="53.75" xlink:href="#Degradado_sin_nombre_27"/><linearGradient id="Degradado_sin_nombre_22-3" x1="30.11" y1="43.93" x2="19.52" y2="61.46" gradientTransform="translate(44.84 -1.69) rotate(45)" xlink:href="#Degradado_sin_nombre_22"/><linearGradient id="Degradado_sin_nombre_27-3" x1="24.46" y1="60.76" x2="24.46" y2="48.4" xlink:href="#Degradado_sin_nombre_27"/></defs><g id="Livello_2" data-name="Livello 2"><g id="OBJECTS"><path class="cls-1" d="M110.76,10.51v3a11.34,11.34,0,0,0-6.07-1.82H6.17A11.43,11.43,0,0,0,.1,13.49v-3A10.51,10.51,0,0,1,10.62,0h89.63A10.51,10.51,0,0,1,110.76,10.51Z"/><path class="cls-2" d="M104.69,11.33v.34H6.17v-.34a6.62,6.62,0,0,1,6.62-6.62H98.07A6.62,6.62,0,0,1,104.69,11.33Z"/><path class="cls-3" d="M110.86,25.79V81.71a10.51,10.51,0,0,1-10.51,10.51H10.52A10.51,10.51,0,0,1,0,81.71V25.79A10.51,10.51,0,0,1,10.52,15.28h89.83A10.51,10.51,0,0,1,110.86,25.79Z"/><path class="cls-4" d="M110.86,25.79V81.71a10.51,10.51,0,0,1-10.51,10.51H43.47a61.51,61.51,0,0,1-.76-76.94h57.64A10.51,10.51,0,0,1,110.86,25.79Z"/><path class="cls-5" d="M110.86,27.75V78.81a32.29,32.29,0,1,1,0-51.06Z"/><path class="cls-6" d="M110.86,25.79V81.71a10.51,10.51,0,0,1-10.51,10.51H70.17a44.2,44.2,0,0,1-1.66-76.94h31.84A10.51,10.51,0,0,1,110.86,25.79Z"/><path class="cls-1" d="M96.6,57.2a6.79,6.79,0,0,0-4.07,1.38l-3.92-4.3,1.91-6.13a6.64,6.64,0,0,0,1.42.15,6.8,6.8,0,1,0-2.63-.53L87.4,53.89l-6.05,1.29a6.7,6.7,0,1,0,.34,2,6.65,6.65,0,0,0-.08-.78l6.06-1.29,3.92,4.31A6.72,6.72,0,0,0,89.81,64,6.79,6.79,0,1,0,96.6,57.2Z"/><path class="cls-1" d="M0,36.24H31A9.72,9.72,0,0,1,40.74,46V60.59A9.72,9.72,0,0,1,31,70.31H0a0,0,0,0,1,0,0V36.24A0,0,0,0,1,0,36.24Z"/><circle class="cls-7" cx="24.46" cy="53.28" r="10.18" transform="translate(-30.51 32.9) rotate(-45)"/><circle class="cls-8" cx="24.46" cy="53.28" r="7.2"/></g></g></svg>