<?xml version="1.0" encoding="utf-8"?>
<!-- Generator: Adobe Illustrator 26.0.3, SVG Export Plug-In . SVG Version: 6.00 Build 0)  -->
<svg version="1.1" id="Livello_1" xmlns="http://www.w3.org/2000/svg" xmlns:xlink="http://www.w3.org/1999/xlink" x="0px" y="0px"
	 viewBox="0 0 700 700" style="enable-background:new 0 0 700 700;" xml:space="preserve">
<style type="text/css">
	.st0{fill-rule:evenodd;clip-rule:evenodd;fill:#9E6304;}
</style>
<path class="st0" d="M350,700c193.2,0,350-156.8,350-350S543.2,0,350,0S0,156.8,0,350S156.8,700,350,700z M350,627.7
	c-9,0-16.3-7.3-16.3-16.3c0-9,7.3-16.3,16.3-16.3s16.3,7.3,16.3,16.3C366.3,620.3,359,627.7,350,627.7z M286.6,586.6
	c8.7,2.3,13.9,11.3,11.6,20c-2.3,8.7-11.3,13.9-20,11.5c-8.7-2.3-13.9-11.3-11.5-20C268.9,589.5,277.9,584.3,286.6,586.6
	L286.6,586.6z M421.9,618.2c-8.7,2.3-17.7-2.8-20-11.5c-2.3-8.7,2.8-17.7,11.6-20c8.7-2.3,17.6,2.8,20,11.6
	C435.7,606.9,430.6,615.8,421.9,618.2L421.9,618.2z M227.5,562.2c7.8,4.5,10.5,14.5,6,22.3c-4.5,7.8-14.5,10.5-22.3,6
	c-7.8-4.5-10.5-14.5-6-22.3C209.7,560.3,219.7,557.7,227.5,562.2z M488.8,590.5c-7.8,4.5-17.8,1.8-22.3-6c-4.5-7.8-1.8-17.8,6-22.3
	c7.8-4.5,17.8-1.9,22.3,6C499.3,576,496.6,585.9,488.8,590.5z M359.3,179.9c-3.1-0.1-6.2-0.2-9.3-0.2s-6.3,0.1-9.3,0.2V154
	c0-12.9-10.5-23.3-23.3-23.3c-12.9,0-23.3,10.5-23.3,23.3v35.1c-66.5,23.2-114.3,86.5-114.3,160.9c0,68.2,40.1,127,98,154.2V546
	c0,12.9,10.5,23.3,23.3,23.3s23.3-10.5,23.3-23.3v-27.6c6.1,0.9,12.4,1.5,18.7,1.8V546c0,12.9,10.5,23.3,23.3,23.3
	c12.9,0,23.3-10.5,23.3-23.3v-30.3c27.9-6.7,53.2-20.2,73.9-38.7c9.6-8.6,10.4-23.4,1.8-32.9c-8.6-9.6-23.3-10.4-32.9-1.8
	c-21.8,19.6-50.8,31.5-82.4,31.5c-68.3,0-123.7-55.4-123.7-123.7S281.7,226.3,350,226.3c31.6,0,60.6,11.9,82.4,31.5
	c9.6,8.6,24.4,7.8,32.9-1.8c8.6-9.6,7.8-24.3-1.8-32.9c-16.6-14.8-36.1-26.5-57.6-34V154c0-12.9-10.5-23.3-23.3-23.3
	c-12.9,0-23.3,10.5-23.3,23.3V179.9z M176.8,523.2c6.3,6.4,6.3,16.7,0,23.1c-6.4,6.4-16.7,6.4-23.1,0c-6.4-6.3-6.4-16.7,0-23.1
	C160,516.9,170.4,516.9,176.8,523.2z M546.3,546.3c-6.3,6.4-16.7,6.4-23.1,0c-6.3-6.3-6.3-16.7,0-23.1c6.4-6.3,16.7-6.3,23.1,0
	C552.7,529.6,552.7,540,546.3,546.3z M137.8,472.5c4.5,7.8,1.9,17.8-6,22.3c-7.8,4.5-17.8,1.8-22.3-6c-4.5-7.8-1.8-17.8,6-22.3
	C123.3,462,133.3,464.7,137.8,472.5z M590.5,488.8c-4.5,7.8-14.5,10.5-22.3,6c-7.8-4.5-10.5-14.5-6-22.3c4.5-7.8,14.5-10.5,22.3-6
	C592.3,471,595,481.1,590.5,488.8z M113.3,413.4c2.3,8.7-2.8,17.6-11.6,20c-8.7,2.3-17.6-2.8-20-11.5c-2.3-8.7,2.8-17.7,11.5-20
	C102.1,399.5,111,404.7,113.3,413.4L113.3,413.4z M618.2,421.9c-2.3,8.7-11.3,13.9-20,11.5c-8.7-2.3-13.9-11.3-11.6-20
	c2.3-8.7,11.3-13.9,20-11.6C615.4,404.2,620.5,413.2,618.2,421.9L618.2,421.9z M627.7,350c0,9-7.3,16.3-16.3,16.3
	c-9,0-16.3-7.3-16.3-16.3c0-9,7.3-16.3,16.3-16.3C620.3,333.7,627.7,341,627.7,350z M105,350c0,9-7.3,16.3-16.3,16.3
	S72.3,359,72.3,350c0-9,7.3-16.3,16.3-16.3S105,341,105,350z M618.2,278.2c2.3,8.7-2.8,17.7-11.5,20c-8.7,2.3-17.7-2.8-20-11.6
	c-2.3-8.7,2.8-17.6,11.6-20C606.9,264.3,615.9,269.4,618.2,278.2L618.2,278.2z M113.3,286.6c-2.3,8.7-11.3,13.9-20,11.6
	c-8.7-2.3-13.9-11.3-11.5-20c2.3-8.7,11.3-13.9,20-11.5C110.5,269,115.7,277.9,113.3,286.6L113.3,286.6z M590.5,211.2
	c4.5,7.8,1.8,17.8-6,22.3c-7.8,4.5-17.8,1.8-22.3-6c-4.5-7.8-1.9-17.8,6-22.3C576,200.7,585.9,203.4,590.5,211.2z M137.8,227.5
	c-4.5,7.8-14.5,10.5-22.3,6c-7.8-4.5-10.5-14.5-6-22.3c4.5-7.8,14.5-10.5,22.3-6C139.7,209.7,142.3,219.7,137.8,227.5z M176.8,176.8
	c-6.4,6.3-16.7,6.3-23.1,0c-6.4-6.4-6.4-16.7,0-23.1c6.3-6.4,16.7-6.4,23.1,0C183.1,160,183.1,170.4,176.8,176.8z M546.3,153.7
	c6.4,6.3,6.4,16.7,0,23.1c-6.3,6.3-16.7,6.3-23.1,0c-6.3-6.4-6.3-16.7,0-23.1C529.6,147.3,540,147.3,546.3,153.7z M227.5,137.8
	c-7.8,4.5-17.8,1.9-22.3-6c-4.5-7.8-1.8-17.8,6-22.3c7.8-4.5,17.8-1.8,22.3,6C238,123.4,235.3,133.3,227.5,137.8z M488.8,109.5
	c7.8,4.5,10.5,14.5,6,22.3c-4.5,7.8-14.5,10.5-22.3,6c-7.8-4.5-10.5-14.5-6-22.3C471,107.7,481,105.1,488.8,109.5z M421.9,81.8
	c8.7,2.3,13.9,11.3,11.5,20c-2.3,8.7-11.3,13.9-20,11.6c-8.7-2.3-13.9-11.3-11.6-20C404.2,84.7,413.1,79.5,421.9,81.8L421.9,81.8z
	 M286.6,113.4c-8.7,2.3-17.6-2.8-20-11.6c-2.3-8.7,2.8-17.6,11.5-20c8.7-2.3,17.7,2.8,20,11.5C300.5,102.1,295.3,111,286.6,113.4
	L286.6,113.4z M350,105c-9,0-16.3-7.3-16.3-16.3S341,72.3,350,72.3c9,0,16.3,7.3,16.3,16.3S359,105,350,105z"/>
</svg>
