<svg xmlns="http://www.w3.org/2000/svg" style="display: none;" class="svg-icon"><defs><symbol id="svg-clear" viewBox="0 0 34.96 34.96"><path d="M276.71,413.59a1.17,1.17,0,0,1-1.65-1.65l15.49-15.49L275.06,381a1.17,1.17,0,0,1,1.65-1.65l15.49,15.49,15.49-15.49a1.17,1.17,0,0,1,1.65,1.65l-15.49,15.49,15.49,15.49a1.17,1.17,0,0,1-1.65,1.65L292.2,398.1l-15.49,15.49h0Z" transform="translate(-274.71 -378.97)"/></symbol><symbol id="svg-plus" viewBox="0 0 48.48 48.48"><path d="M306.41,419.31a1.17,1.17,0,0,1-2.34,0v-21.9h-21.9a1.17,1.17,0,0,1,0-2.34h21.9v-21.9a1.17,1.17,0,0,1,2.34,0v21.9h21.9a1.17,1.17,0,0,1,0,2.34h-21.9v21.9h0Z" transform="translate(-281 -372)"/></symbol><symbol id="svg-back" viewBox="0 0 35.02 35.02"><path d="M500.79,379.29a1.2,1.2,0,0,1,1.7,1.7l-14.26,14.26h29.73a1.2,1.2,0,1,1,0,2.4H488.22l14.26,14.26a1.2,1.2,0,1,1-1.7,1.7L484.47,397.3l0,0h0l0,0h0l-0.12-.16v0l0,0h0v0h0l0-.08h0a1.2,1.2,0,0,1,0-.85h0l0-.08h0v0h0l0,0v0l0.12-.16h0l0,0h0l0,0,16.31-16.31h0Z" class="svg-icons-style" transform="translate(-484.12 -378.94)"/></symbol><symbol id="svg-menu" viewBox="0 0 23.08 20.01"><path d="M313.82,386h2.59a0.67,0.67,0,1,1,0,1.33H294.67a0.67,0.67,0,1,1,0-1.33h19.16Zm0,18.68h2.59a0.67,0.67,0,1,1,0,1.33H294.67a0.67,0.67,0,1,1,0-1.33h19.16Zm0-9.34h2.59a0.67,0.67,0,1,1,0,1.33H294.67a0.67,0.67,0,1,1,0-1.33h19.16Z" transform="translate(-294 -386)"/></symbol></defs></svg>