<svg xmlns="http://www.w3.org/2000/svg" style="display: none;"><defs><symbol id="portfolio-profitloss" viewBox="0 0 134.69 109.17"><title>Profit/Loss</title><path d="M165.63,400.74h26a6.62,6.62,0,0,1,4.69,1.94v0a6.6,6.6,0,0,1,1.94,4.67v37.17a6.64,6.64,0,0,1-6.63,6.63h-26a6.6,6.6,0,0,1-4.67-1.94h0a6.61,6.61,0,0,1-1.95-4.69V407.37a6.6,6.6,0,0,1,1.95-4.67l0,0a6.6,6.6,0,0,1,4.67-1.94h0Zm95.4-41.4h26a6.61,6.61,0,0,1,4.69,1.94v0a6.6,6.6,0,0,1,1.94,4.67v78.57a6.64,6.64,0,0,1-6.63,6.63H261a6.6,6.6,0,0,1-4.67-1.94h0a6.61,6.61,0,0,1-1.94-4.69V366a6.6,6.6,0,0,1,1.94-4.67l0,0a6.6,6.6,0,0,1,4.67-1.94h0Zm24.66,8H262.4v75.83h23.29V367.34h0ZM213.33,342h26a6.61,6.61,0,0,1,4.69,1.94v0a6.6,6.6,0,0,1,1.94,4.67v95.91a6.64,6.64,0,0,1-6.63,6.63h-26a6.6,6.6,0,0,1-4.67-1.94h0a6.61,6.61,0,0,1-1.94-4.69V348.63a6.6,6.6,0,0,1,1.94-4.67l0,0a6.6,6.6,0,0,1,4.67-1.94h0ZM238,350H214.7v93.17H238V350h0Zm-47.7,58.74H167v34.43h23.29V408.74h0Z" transform="translate(-159 -342)" style="fill: rgb(138, 138, 138);"/></symbol><symbol id="portfolio-note" viewBox="0 0 134.69 109.17"><title>Note</title><path d="M364.79,421.29a4,4,0,1,1,0-8H402a4,4,0,0,1,0,8H364.79ZM352.71,342h89.92a12.53,12.53,0,0,1,12.51,12.51v84.16a12.53,12.53,0,0,1-12.51,12.51H352.71a12.53,12.53,0,0,1-12.51-12.51V354.51A12.53,12.53,0,0,1,352.71,342h0Zm89.92,8H352.71a4.53,4.53,0,0,0-4.51,4.51v84.16a4.53,4.53,0,0,0,4.51,4.51h89.92a4.53,4.53,0,0,0,4.51-4.51V354.51a4.53,4.53,0,0,0-4.51-4.51h0Zm-77.83,29.89a4,4,0,1,1,0-8h65.75a4,4,0,1,1,0,8H364.79Zm0,20.7a4,4,0,1,1,0-8h65.75a4,4,0,1,1,0,8H364.79Z" transform="translate(-340.2 -342)" style="fill: rgb(138, 138, 138);"/></symbol><symbol id="svg-alert-delete" viewBox="0 0 12.45 12.45"><title>Delete</title><path d="M299.6,390.6l11.25,11.25m0-11.25L299.6,401.85" transform="translate(-299 -390)" style="fill: none; stroke: rgb(136, 136, 136); stroke-linecap: round; stroke-linejoin: round; stroke-width: 1px;"/></symbol></defs></svg>